<svg t="1743519763938" class="icon" viewBox="0 0 1024 1024" version="1.1" xmlns="http://www.w3.org/2000/svg" p-id="6505" width="200" height="200"><path d="M887.466667 618.666667l-51.2 0c-6.4 17.066667-12.8 32-19.2 46.933333l36.266667 36.266667c21.333333 21.333333 19.2 53.333333 0 74.666667l-74.666667 74.666667c-21.333333 21.333333-53.333333 21.333333-74.666667 0l-36.266667-36.266667c-14.933333 8.533333-29.866667 14.933333-46.933333 19.2l0 51.2c0 29.866667-23.466667 51.2-53.333333 51.2l-106.666667 0c-29.866667 0-53.333333-23.466667-53.333333-51.2l0-51.2c-17.066667-6.4-32-12.8-46.933333-19.2l-36.266667 36.266667c-21.333333 21.333333-53.333333 19.2-74.666667 0l-74.666667-74.666667c-21.333333-21.333333-21.333333-53.333333 0-74.666667l36.266667-36.266667c-8.533333-14.933333-12.8-29.866667-19.2-46.933333L136.533333 618.666667C108.8 618.666667 85.333333 595.2 85.333333 565.333333l0-106.666667C85.333333 428.8 108.8 405.333333 136.533333 405.333333l51.2 0c6.4-17.066667 12.8-32 19.2-46.933333l-36.266667-36.266667c-21.333333-21.333333-19.2-53.333333 0-74.666667l74.666667-74.666667c21.333333-21.333333 53.333333-21.333333 74.666667 0l36.266667 36.266667c14.933333-8.533333 29.866667-14.933333 46.933333-19.2L403.2 136.533333C405.333333 108.8 428.8 85.333333 458.666667 85.333333l106.666667 0C595.2 85.333333 618.666667 108.8 618.666667 136.533333l0 51.2c17.066667 6.4 32 12.8 46.933333 19.2l36.266667-36.266667c21.333333-21.333333 53.333333-19.2 74.666667 0l74.666667 74.666667c21.333333 21.333333 21.333333 53.333333 0 74.666667l-36.266667 36.266667c8.533333 14.933333 12.8 29.866667 19.2 46.933333l51.2 0c29.866667 0 51.2 23.466667 51.2 53.333333l0 106.666667C938.666667 595.2 915.2 618.666667 887.466667 618.666667zM896 448l-91.733333 0c-4.266667-19.2-10.666667-38.4-19.2-57.6 0 0 0 0 0 0l0 0c-6.4-12.8-12.8-27.733333-21.333333-38.4l66.133333-66.133333-89.6-89.6-66.133333 66.133333c-29.866667-19.2-61.866667-32-96-40.533333l0 0L578.133333 128l-128 0 0 91.733333 0 0c-34.133333 8.533333-68.266667 21.333333-96 40.533333l-66.133333-66.133333-89.6 89.6 66.133333 66.133333c-10.666667 17.066667-19.2 34.133333-27.733333 53.333333 0 0 0 0 0 2.133333l0 0c-4.266667 12.8-10.666667 27.733333-12.8 42.666667L128 448l0 128 91.733333 0c8.533333 34.133333 21.333333 68.266667 40.533333 96l-66.133333 66.133333 89.6 89.6 66.133333-66.133333c17.066667 10.666667 36.266667 19.2 53.333333 27.733333l0 0c12.8 4.266667 27.733333 10.666667 42.666667 12.8L445.866667 896l128 0 0-91.733333c14.933333-4.266667 29.866667-8.533333 42.666667-12.8l0 0c19.2-6.4 38.4-17.066667 53.333333-27.733333l66.133333 66.133333 89.6-89.6-66.133333-66.133333c10.666667-17.066667 19.2-34.133333 27.733333-53.333333 0 0 0 0 0-2.133333l0 0c4.266667-12.8 10.666667-27.733333 12.8-42.666667L896 576 896 448zM512 640c-70.4 0-128-57.6-128-128 0-70.4 57.6-128 128-128s128 57.6 128 128C640 582.4 582.4 640 512 640zM512 426.666667c-46.933333 0-85.333333 38.4-85.333333 85.333333 0 46.933333 38.4 85.333333 85.333333 85.333333 46.933333 0 85.333333-38.4 85.333333-85.333333C597.333333 465.066667 558.933333 426.666667 512 426.666667z" p-id="6506"></path></svg>